<svg xmlns="http://www.w3.org/2000/svg" viewBox="0 0 1200 340" width="100%" height="100%">
  <defs><style>.m{font-family:'SF Mono',ui-monospace,SFMono-Regular,Menlo,Consolas,monospace}.s{font-family:-apple-system,BlinkMacSystemFont,'Segoe UI',Helvetica,Arial,sans-serif}</style></defs>

  <rect width="1200" height="340" rx="10" fill="#FFFFFF"/>
  <rect width="1200" height="340" rx="10" fill="none" stroke="#D0D7DE" stroke-width="1.2"/>

  <!-- ── LEFT PANEL ── -->
  <text class="m" x="42" y="58" font-size="12" font-weight="800" fill="#B85C3F" letter-spacing="2">LANGUAGE</text>
  <text class="s" x="42" y="128" font-size="56" font-weight="900" fill="#1F2328" letter-spacing="-2">FOOTPRINT</text>
  <text class="m" x="42" y="158" font-size="11" font-weight="600" fill="#8A9299" letter-spacing="2">AGGREGATED REPOSITORY BYTES</text>

  <!-- Spectrum bar -->
  <rect x="42" y="190" width="131" height="18" rx="3" fill="#B85C3F"/>
  <rect x="176" y="190" width="113" height="18" rx="3" fill="#7A8A9A"/>
  <rect x="292" y="190" width="63" height="18" rx="3" fill="#9AAFBE"/>
  <rect x="358" y="190" width="7" height="18" rx="3" fill="#B8CCDA"/>
  <rect x="368" y="190" width="3" height="18" rx="3" fill="#CCD8E4"/>
  <rect x="374" y="190" width="3" height="18" rx="3" fill="#DDE8F0"/>
  <!-- Marker dot -->
  <circle cx="388" cy="199" r="8" fill="none" stroke="#B85C3F" stroke-width="1.8"/>
  <circle cx="388" cy="199" r="3.5" fill="#B85C3F"/>

  <!-- Database icon -->
  <ellipse cx="51" cy="248" rx="9" ry="3.5" fill="none" stroke="#59636E" stroke-width="1.3"/>
  <line x1="42" y1="248" x2="42" y2="260" stroke="#59636E" stroke-width="1.3"/>
  <line x1="60" y1="248" x2="60" y2="260" stroke="#59636E" stroke-width="1.3"/>
  <ellipse cx="51" cy="260" rx="9" ry="3.5" fill="none" stroke="#59636E" stroke-width="1.3"/>
  <text class="m" x="70" y="262" font-size="11.5" font-weight="600" fill="#8A9299" letter-spacing="1">TOTAL INDEXED: 8.9 MB</text>

  <!-- Shield icon -->
  <path d="M 51 276 Q 42 272 42 265 L 42 282 Q 42 294 51 298 Q 60 294 60 282 L 60 265 Q 60 272 51 276 Z" fill="none" stroke="#59636E" stroke-width="1.3"/>
  <text class="m" x="70" y="294" font-size="11.5" font-weight="600" fill="#59636E" letter-spacing="1">SOURCE: VERIFIED CODEBASE BYTES</text>

  <!-- Divider -->
  <line x1="424" y1="20" x2="424" y2="320" stroke="#D0D7DE" stroke-width="1"/>

  <!-- ── RIGHT PANEL ── -->
  <text class="s" x="460" y="58" font-size="16" font-weight="500" fill="#1F2328">JavaScript</text>
  <text class="m" x="1158" y="58" font-size="14" font-weight="700" fill="#B85C3F" text-anchor="end">41.0%</text>
  <rect x="460" y="66" width="286" height="7" rx="3.5" fill="#B85C3F"/>
  <text class="s" x="460" y="104" font-size="16" font-weight="500" fill="#1F2328">TypeScript</text>
  <text class="m" x="1158" y="104" font-size="14" font-weight="700" fill="#1F2328" text-anchor="end">35.2%</text>
  <rect x="460" y="112" width="246" height="7" rx="3.5" fill="#6A7A8A"/>
  <text class="s" x="460" y="150" font-size="16" font-weight="500" fill="#1F2328">Dart</text>
  <text class="m" x="1158" y="150" font-size="14" font-weight="700" fill="#1F2328" text-anchor="end">19.7%</text>
  <rect x="460" y="158" width="138" height="7" rx="3.5" fill="#90A8B8"/>
  <text class="s" x="460" y="196" font-size="16" font-weight="500" fill="#1F2328">C++ / Native</text>
  <text class="m" x="1158" y="196" font-size="14" font-weight="700" fill="#1F2328" text-anchor="end">2.1%</text>
  <rect x="460" y="204" width="15" height="7" rx="3.5" fill="#B0C8D8"/>
  <text class="s" x="460" y="242" font-size="16" font-weight="500" fill="#1F2328">Kotlin</text>
  <text class="m" x="1158" y="242" font-size="14" font-weight="700" fill="#1F2328" text-anchor="end">1.1%</text>
  <rect x="460" y="250" width="7" height="7" rx="3.5" fill="#C8D8E8"/>
  <text class="s" x="460" y="288" font-size="16" font-weight="500" fill="#1F2328">Other (HTML, Swift, CSS, PLpgSQL)</text>
  <text class="m" x="1158" y="288" font-size="14" font-weight="700" fill="#1F2328" text-anchor="end">0.8%</text>
  <rect x="460" y="296" width="6" height="7" rx="3.5" fill="#D8E8F0"/>
</svg>