<svg xmlns="http://www.w3.org/2000/svg" viewBox="0 0 1200 720" width="100%" height="100%">
  <defs>
    <linearGradient id="laserBulletLight" x1="0%" y1="0%" x2="100%" y2="0%">
      <stop offset="0%" stop-color="#B85C3F" stop-opacity="0" />
      <stop offset="40%" stop-color="#B85C3F" stop-opacity="0.5" />
      <stop offset="80%" stop-color="#FF8C66" stop-opacity="0.9" />
      <stop offset="100%" stop-color="#FFFFFF" stop-opacity="1" />
    </linearGradient>

    <filter id="laserGlowLight" x="-50%" y="-100%" width="200%" height="300%">
      <feGaussianBlur in="SourceGraphic" stdDeviation="3.5" result="blur1" />
      <feGaussianBlur in="SourceGraphic" stdDeviation="7" result="blur2" />
      <feMerge>
        <feMergeNode in="blur2" />
        <feMergeNode in="blur1" />
        <feMergeNode in="SourceGraphic" />
      </feMerge>
    </filter>

    <style>
      .mono-hdr {
        font-family: ui-monospace, SFMono-Regular, 'SF Mono', Menlo, Consolas, monospace;
        font-weight: 700;
        letter-spacing: 1.5px;
      }
      .lane-title {
        font-family: ui-monospace, SFMono-Regular, 'SF Mono', Menlo, Consolas, monospace;
        font-weight: 800;
        letter-spacing: 1px;
      }
      .node-label {
        font-family: -apple-system, BlinkMacSystemFont, 'Segoe UI', Helvetica, Arial, sans-serif;
        font-weight: 700;
        letter-spacing: -0.2px;
      }

      @keyframes laserMove1L {
        0% { transform: translateX(220px); opacity: 0; }
        3% { opacity: 1; }
        42% { transform: translateX(1150px); opacity: 1; }
        46% { opacity: 0; }
        100% { transform: translateX(1150px); opacity: 0; }
      }
      @keyframes laserMove2L {
        0% { transform: translateX(220px); opacity: 0; }
        4% { opacity: 1; }
        44% { transform: translateX(1150px); opacity: 1; }
        48% { opacity: 0; }
        100% { transform: translateX(1150px); opacity: 0; }
      }
      @keyframes laserMove3L {
        0% { transform: translateX(220px); opacity: 0; }
        3% { opacity: 1; }
        40% { transform: translateX(1150px); opacity: 1; }
        44% { opacity: 0; }
        100% { transform: translateX(1150px); opacity: 0; }
      }
      @keyframes laserMove4L {
        0% { transform: translateX(220px); opacity: 0; }
        4% { opacity: 1; }
        46% { transform: translateX(1150px); opacity: 1; }
        50% { opacity: 0; }
        100% { transform: translateX(1150px); opacity: 0; }
      }
      @keyframes laserMove5L {
        0% { transform: translateX(220px); opacity: 0; }
        3% { opacity: 1; }
        43% { transform: translateX(1150px); opacity: 1; }
        47% { opacity: 0; }
        100% { transform: translateX(1150px); opacity: 0; }
      }

      .laser-1-l { animation: laserMove1L 9.7s cubic-bezier(0.2, 0, 0.2, 1) infinite; }
      .laser-2-l { animation: laserMove2L 12.3s cubic-bezier(0.2, 0, 0.2, 1) infinite; animation-delay: 2.1s; }
      .laser-3-l { animation: laserMove3L 10.8s cubic-bezier(0.2, 0, 0.2, 1) infinite; animation-delay: 4.3s; }
      .laser-4-l { animation: laserMove4L 14.1s cubic-bezier(0.2, 0, 0.2, 1) infinite; animation-delay: 1.4s; }
      .laser-5-l { animation: laserMove5L 11.6s cubic-bezier(0.2, 0, 0.2, 1) infinite; animation-delay: 5.2s; }
    </style>
  </defs>

  <!-- Base Canvas -->
  <rect width="1200" height="720" rx="12" fill="#F6F8FA" stroke="#D0D7DE" stroke-width="1" />

  <!-- Celestial Coordinate Points -->
  <g fill="#1F2328" opacity="0.04">
    <circle cx="120" cy="90" r="1.5" /><circle cx="340" cy="70" r="1.5" />
    <circle cx="680" cy="95" r="1.5" /><circle cx="950" cy="80" r="1.5" />
    <circle cx="210" cy="300" r="1.5" /><circle cx="820" cy="310" r="1.5" />
    <circle cx="450" cy="520" r="1.5" /><circle cx="1080" cy="540" r="1.5" />
  </g>

  <!-- Top Header Bar -->
  <g transform="translate(48, 44)">
    <text class="mono-hdr" x="0" y="0" font-size="18" fill="#B85C3F">ENGINEERING STACK</text>
    <text class="mono-hdr" x="225" y="0" font-size="16" fill="#59636E">/ TOOLS ACROSS THE SOFTWARE DELIVERY PATH</text>
    <text class="mono-hdr" x="1104" y="0" font-size="14" fill="#8C959F" text-anchor="end">SIGNAL TRANSMISSION</text>
  </g>

  <line x1="48" y1="62" x2="1152" y2="62" stroke="#E1E4E8" stroke-width="1" />

  <!-- LANE 01: PRODUCT (Y=135) -->
  <g transform="translate(0, 135)">
    <line x1="220" y1="0" x2="1152" y2="0" stroke="#D0D7DE" stroke-width="2" />

    <g class="laser-1-l">
      <line x1="-50" y1="0" x2="0" y2="0" stroke="#B85C3F" stroke-width="7" stroke-linecap="round" opacity="0.45" filter="url(#laserGlowLight)" />
      <line x1="-42" y1="0" x2="0" y2="0" stroke="url(#laserBulletLight)" stroke-width="3.5" stroke-linecap="round" />
      <circle cx="0" cy="0" r="4" fill="#FFFFFF" filter="url(#laserGlowLight)" />
      <circle cx="0" cy="0" r="2.2" fill="#FFFFFF" />
    </g>

    <g transform="translate(48, 7)">
      <text class="lane-title" x="0" y="0" font-size="22" fill="#B85C3F">01</text>
      <text class="lane-title" x="38" y="0" font-size="20" fill="#1F2328">PRODUCT</text>
    </g>

    <!-- Node 1: Flutter -->
    <g transform="translate(260, 0)">
      <rect x="-34" y="-34" width="68" height="68" rx="14" fill="#FFFFFF" stroke="#B85C3F" stroke-width="1.8" />
      <path d="M -12 -15 L 6 3 L -12 21 L -19 14 L -3 3 L -19 -8 Z" fill="#02569B" />
      <text class="node-label" x="0" y="54" font-size="22" fill="#1F2328" text-anchor="middle">Flutter</text>
    </g>

    <!-- Node 2: Dart -->
    <g transform="translate(415, 0)">
      <rect x="-27" y="-27" width="54" height="54" rx="12" fill="#FFFFFF" stroke="#D0D7DE" stroke-width="1.3" />
      <path d="M -10 -10 L 4 -10 L 10 0 L -4 10 L -10 10 Z" fill="#0175C2" />
      <text class="node-label" x="0" y="48" font-size="20" fill="#1F2328" text-anchor="middle">Dart</text>
    </g>

    <!-- Node 3: React -->
    <g transform="translate(570, 0)">
      <rect x="-33" y="-33" width="66" height="66" rx="14" fill="#FFFFFF" stroke="#D0D7DE" stroke-width="1.4" />
      <ellipse cx="0" cy="0" rx="14" ry="6" fill="none" stroke="#0088CC" stroke-width="1.6" />
      <ellipse cx="0" cy="0" rx="14" ry="6" transform="rotate(60)" fill="none" stroke="#0088CC" stroke-width="1.6" />
      <ellipse cx="0" cy="0" rx="14" ry="6" transform="rotate(120)" fill="none" stroke="#0088CC" stroke-width="1.6" />
      <circle cx="0" cy="0" r="3" fill="#0088CC" />
      <text class="node-label" x="0" y="54" font-size="22" fill="#1F2328" text-anchor="middle">React</text>
    </g>

    <!-- Node 4: TypeScript -->
    <g transform="translate(735, 0)">
      <rect x="-33" y="-33" width="66" height="66" rx="14" fill="#FFFFFF" stroke="#B85C3F" stroke-width="1.8" />
      <rect x="-24" y="-24" width="48" height="48" rx="6" fill="#3178C6" opacity="0.15" />
      <text class="mono-hdr" x="0" y="9" font-size="23" fill="#3178C6" text-anchor="middle">TS</text>
      <text class="node-label" x="0" y="54" font-size="22" fill="#1F2328" text-anchor="middle">TypeScript</text>
    </g>

    <!-- Node 5: Tailwind CSS -->
    <g transform="translate(895, 0)">
      <rect x="-27" y="-27" width="54" height="54" rx="12" fill="#FFFFFF" stroke="#D0D7DE" stroke-width="1.3" />
      <path d="M -11 -4 C -10 -10 -2 -9 0 -4 C 3 1 9 1 9 6 C 6 11 -2 10 -4 5 C -5 2 -11 2 -11 -4 Z" fill="#0284C7" />
      <text class="node-label" x="0" y="48" font-size="20" fill="#1F2328" text-anchor="middle">Tailwind</text>
    </g>

    <!-- Node 6: Vite -->
    <g transform="translate(1045, 0)">
      <rect x="-26" y="-26" width="52" height="52" rx="12" fill="#FFFFFF" stroke="#D0D7DE" stroke-width="1.3" />
      <path d="M -10 -11 L 0 11 L 10 -11 L 4 -11 L 0 -2 L -4 -11 Z" fill="#7C3AED" />
      <text class="node-label" x="0" y="48" font-size="20" fill="#1F2328" text-anchor="middle">Vite</text>
    </g>
  </g>

  <!-- LANE 02: SERVICES (Y=255) -->
  <g transform="translate(0, 255)">
    <line x1="220" y1="0" x2="1152" y2="0" stroke="#D0D7DE" stroke-width="2" />

    <g class="laser-2-l">
      <line x1="-50" y1="0" x2="0" y2="0" stroke="#B85C3F" stroke-width="7" stroke-linecap="round" opacity="0.45" filter="url(#laserGlowLight)" />
      <line x1="-42" y1="0" x2="0" y2="0" stroke="url(#laserBulletLight)" stroke-width="3.5" stroke-linecap="round" />
      <circle cx="0" cy="0" r="4" fill="#FFFFFF" filter="url(#laserGlowLight)" />
      <circle cx="0" cy="0" r="2.2" fill="#FFFFFF" />
    </g>

    <g transform="translate(48, 7)">
      <text class="lane-title" x="0" y="0" font-size="22" fill="#B85C3F">02</text>
      <text class="lane-title" x="38" y="0" font-size="20" fill="#1F2328">SERVICES</text>
    </g>

    <!-- Node 1: Node.js -->
    <g transform="translate(260, 0)">
      <rect x="-34" y="-34" width="68" height="68" rx="14" fill="#FFFFFF" stroke="#B85C3F" stroke-width="1.8" />
      <path d="M 0 -15 L 14 -7 L 14 7 L 0 15 L -14 7 L -14 -7 Z" fill="none" stroke="#43853D" stroke-width="2.4" />
      <text class="node-label" x="0" y="54" font-size="22" fill="#1F2328" text-anchor="middle">Node.js</text>
    </g>

    <!-- Node 2: Express -->
    <g transform="translate(430, 0)">
      <rect x="-27" y="-27" width="54" height="54" rx="12" fill="#FFFFFF" stroke="#D0D7DE" stroke-width="1.3" />
      <text class="mono-hdr" x="0" y="7" font-size="18" fill="#1F2328" text-anchor="middle">EX</text>
      <text class="node-label" x="0" y="48" font-size="20" fill="#1F2328" text-anchor="middle">Express</text>
    </g>

    <!-- Node 3: Socket.IO -->
    <g transform="translate(600, 0)">
      <rect x="-27" y="-27" width="54" height="54" rx="12" fill="#FFFFFF" stroke="#D0D7DE" stroke-width="1.3" />
      <path d="M 0 -10 L 7 -4 L 2 -4 L 2 6 L -2 6 L -2 -4 L -7 -4 Z M 0 10 L -7 4 L -2 4 L -2 -6 L 2 -6 L 2 4 L 7 4 Z" fill="#1F2328" />
      <text class="node-label" x="0" y="48" font-size="20" fill="#1F2328" text-anchor="middle">Socket.IO</text>
    </g>

    <!-- Node 4: Java -->
    <g transform="translate(780, 0)">
      <rect x="-32" y="-32" width="64" height="64" rx="14" fill="#FFFFFF" stroke="#D0D7DE" stroke-width="1.4" />
      <path d="M -7 10 C -4 11 5 11 8 10 C 9 6 5 4 0 2 C -6 0 -8 -5 -5 -7 C -1 -11 5 -11 8 -7" fill="none" stroke="#E76F00" stroke-width="2.2" />
      <text class="node-label" x="0" y="54" font-size="22" fill="#1F2328" text-anchor="middle">Java</text>
    </g>

    <!-- Subtle Technical Vector Marker -->
    <g transform="translate(1000, 0)">
      <path d="M 12 0 L -4 -4 L -6 0 L -4 4 Z" fill="#B85C3F" />
      <circle cx="12" cy="0" r="1.5" fill="#1F2328" />
      <text class="mono-hdr" x="28" y="4" font-size="12" fill="#8C959F">TX/RX</text>
    </g>
  </g>

  <!-- LANE 03: DATA (Y=375) -->
  <g transform="translate(0, 375)">
    <line x1="220" y1="0" x2="1152" y2="0" stroke="#D0D7DE" stroke-width="2" />

    <g class="laser-3-l">
      <line x1="-50" y1="0" x2="0" y2="0" stroke="#B85C3F" stroke-width="7" stroke-linecap="round" opacity="0.45" filter="url(#laserGlowLight)" />
      <line x1="-42" y1="0" x2="0" y2="0" stroke="url(#laserBulletLight)" stroke-width="3.5" stroke-linecap="round" />
      <circle cx="0" cy="0" r="4" fill="#FFFFFF" filter="url(#laserGlowLight)" />
      <circle cx="0" cy="0" r="2.2" fill="#FFFFFF" />
    </g>

    <g transform="translate(48, 7)">
      <text class="lane-title" x="0" y="0" font-size="22" fill="#B85C3F">03</text>
      <text class="lane-title" x="38" y="0" font-size="20" fill="#1F2328">DATA</text>
    </g>

    <!-- Node 1: PostgreSQL -->
    <g transform="translate(260, 0)">
      <rect x="-34" y="-34" width="68" height="68" rx="14" fill="#FFFFFF" stroke="#B85C3F" stroke-width="1.8" />
      <ellipse cx="0" cy="-7" rx="13" ry="5" fill="none" stroke="#336791" stroke-width="2" />
      <path d="M -13 -7 V 7 C 0 12 13 12 13 7 V -7" fill="none" stroke="#336791" stroke-width="2" />
      <text class="node-label" x="0" y="54" font-size="22" fill="#1F2328" text-anchor="middle">PostgreSQL</text>
    </g>

    <!-- Node 2: MongoDB -->
    <g transform="translate(395, 0)">
      <rect x="-32" y="-32" width="64" height="64" rx="14" fill="#FFFFFF" stroke="#D0D7DE" stroke-width="1.4" />
      <path d="M 0 -13 C 6 -6 7 6 0 13 C -7 6 -6 -6 0 -13 Z" fill="none" stroke="#47A248" stroke-width="2.2" />
      <text class="node-label" x="0" y="54" font-size="22" fill="#1F2328" text-anchor="middle">MongoDB</text>
    </g>

    <!-- Node 3: Redis -->
    <g transform="translate(530, 0)">
      <rect x="-32" y="-32" width="64" height="64" rx="14" fill="#FFFFFF" stroke="#D0D7DE" stroke-width="1.4" />
      <path d="M 0 -10 L 11 -5 L 0 0 L -11 -5 Z M -11 0 L 0 5 L 11 0 M -11 5 L 0 10 L 11 5" fill="none" stroke="#DC382D" stroke-width="2" />
      <text class="node-label" x="0" y="54" font-size="22" fill="#1F2328" text-anchor="middle">Redis</text>
    </g>

    <!-- Node 4: MySQL -->
    <g transform="translate(660, 0)">
      <rect x="-27" y="-27" width="54" height="54" rx="12" fill="#FFFFFF" stroke="#D0D7DE" stroke-width="1.3" />
      <text class="mono-hdr" x="0" y="7" font-size="16" fill="#00758F" text-anchor="middle">SQL</text>
      <text class="node-label" x="0" y="48" font-size="20" fill="#1F2328" text-anchor="middle">MySQL</text>
    </g>

    <!-- Node 5: Prisma -->
    <g transform="translate(780, 0)">
      <rect x="-27" y="-27" width="54" height="54" rx="12" fill="#FFFFFF" stroke="#D0D7DE" stroke-width="1.3" />
      <path d="M -8 8 L 0 -12 L 8 8 Z" fill="none" stroke="#2D3748" stroke-width="2" />
      <text class="node-label" x="0" y="48" font-size="20" fill="#1F2328" text-anchor="middle">Prisma</text>
    </g>

    <!-- Node 6: Drizzle -->
    <g transform="translate(895, 0)">
      <rect x="-26" y="-26" width="52" height="52" rx="12" fill="#FFFFFF" stroke="#D0D7DE" stroke-width="1.3" />
      <path d="M -6 7 L 6 -7 M -3 8 L 8 -5" stroke="#65A30D" stroke-width="2" stroke-linecap="round" />
      <text class="node-label" x="0" y="48" font-size="20" fill="#1F2328" text-anchor="middle">Drizzle</text>
    </g>

    <!-- Node 7: SQLite -->
    <g transform="translate(1005, 0)">
      <rect x="-26" y="-26" width="52" height="52" rx="12" fill="#FFFFFF" stroke="#D0D7DE" stroke-width="1.3" />
      <text class="mono-hdr" x="0" y="7" font-size="14" fill="#003B57" text-anchor="middle">LITE</text>
      <text class="node-label" x="0" y="48" font-size="20" fill="#1F2328" text-anchor="middle">SQLite</text>
    </g>

    <!-- Node 8: Supabase -->
    <g transform="translate(1110, 0)">
      <rect x="-27" y="-27" width="54" height="54" rx="12" fill="#FFFFFF" stroke="#D0D7DE" stroke-width="1.3" />
      <path d="M 4 -11 L -7 1 L 0 1 L -4 11 L 7 -1 L 0 -1 Z" fill="#10B981" />
      <text class="node-label" x="0" y="48" font-size="20" fill="#1F2328" text-anchor="middle">Supabase</text>
    </g>
  </g>

  <!-- LANE 04: CLOUD & DELIVERY (Y=495) -->
  <g transform="translate(0, 495)">
    <line x1="220" y1="0" x2="1152" y2="0" stroke="#D0D7DE" stroke-width="2" />

    <g class="laser-4-l">
      <line x1="-50" y1="0" x2="0" y2="0" stroke="#B85C3F" stroke-width="7" stroke-linecap="round" opacity="0.45" filter="url(#laserGlowLight)" />
      <line x1="-42" y1="0" x2="0" y2="0" stroke="url(#laserBulletLight)" stroke-width="3.5" stroke-linecap="round" />
      <circle cx="0" cy="0" r="4" fill="#FFFFFF" filter="url(#laserGlowLight)" />
      <circle cx="0" cy="0" r="2.2" fill="#FFFFFF" />
    </g>

    <g transform="translate(48, 7)">
      <text class="lane-title" x="0" y="0" font-size="22" fill="#B85C3F">04</text>
      <text class="lane-title" x="38" y="0" font-size="20" fill="#1F2328">DELIVERY</text>
    </g>

    <!-- Node 1: AWS -->
    <g transform="translate(260, 0)">
      <rect x="-34" y="-34" width="68" height="68" rx="14" fill="#FFFFFF" stroke="#D0D7DE" stroke-width="1.4" />
      <path d="M -12 5 C -5 11 5 11 12 5 M 10 5 L 12 5 L 11 7" fill="none" stroke="#D97706" stroke-width="2.2" />
      <text class="node-label" x="0" y="54" font-size="22" fill="#1F2328" text-anchor="middle">AWS</text>
    </g>

    <!-- Node 2: Google Cloud -->
    <g transform="translate(415, 0)">
      <rect x="-27" y="-27" width="54" height="54" rx="12" fill="#FFFFFF" stroke="#D0D7DE" stroke-width="1.3" />
      <path d="M -6 4 C -9 4 -10 1 -9 -2 C -8 -7 1 -7 5 -2 C 9 -2 10 4 6 4 Z" fill="none" stroke="#2563EB" stroke-width="1.8" />
      <text class="node-label" x="0" y="48" font-size="20" fill="#1F2328" text-anchor="middle">GCP</text>
    </g>

    <!-- Node 3: Docker -->
    <g transform="translate(570, 0)">
      <rect x="-34" y="-34" width="68" height="68" rx="14" fill="#FFFFFF" stroke="#B85C3F" stroke-width="1.8" />
      <rect x="-10" y="-9" width="4.5" height="4.5" fill="#0284C7" />
      <rect x="-3.5" y="-9" width="4.5" height="4.5" fill="#0284C7" />
      <rect x="3.5" y="-9" width="4.5" height="4.5" fill="#0284C7" />
      <rect x="-3.5" y="-16" width="4.5" height="4.5" fill="#0284C7" />
      <path d="M -14 -1 C -14 7 12 8 14 0 Z" fill="none" stroke="#0284C7" stroke-width="2" />
      <text class="node-label" x="0" y="54" font-size="22" fill="#1F2328" text-anchor="middle">Docker</text>
    </g>

    <!-- Node 4: Linux -->
    <g transform="translate(730, 0)">
      <rect x="-27" y="-27" width="54" height="54" rx="12" fill="#FFFFFF" stroke="#D0D7DE" stroke-width="1.3" />
      <ellipse cx="0" cy="0" rx="9" ry="11" fill="none" stroke="#1F2328" stroke-width="1.8" />
      <text class="node-label" x="0" y="48" font-size="20" fill="#1F2328" text-anchor="middle">Linux</text>
    </g>

    <!-- Node 5: GitHub Actions -->
    <g transform="translate(875, 0)">
      <rect x="-27" y="-27" width="54" height="54" rx="12" fill="#FFFFFF" stroke="#D0D7DE" stroke-width="1.3" />
      <circle cx="0" cy="-6" r="3" fill="#2563EB" />
      <circle cx="-6" cy="6" r="3" fill="#2563EB" />
      <circle cx="6" cy="6" r="3" fill="#2563EB" />
      <path d="M 0 -6 L -6 6 M 0 -6 L 6 6" stroke="#2563EB" stroke-width="1.8" />
      <text class="node-label" x="0" y="48" font-size="20" fill="#1F2328" text-anchor="middle">CI/CD</text>
    </g>

    <!-- Node 6: Vercel -->
    <g transform="translate(1010, 0)">
      <rect x="-26" y="-26" width="52" height="52" rx="12" fill="#FFFFFF" stroke="#D0D7DE" stroke-width="1.3" />
      <path d="M 0 -11 L 11 8 H -11 Z" fill="#1F2328" />
      <text class="node-label" x="0" y="48" font-size="20" fill="#1F2328" text-anchor="middle">Vercel</text>
    </g>
  </g>

  <!-- LANE 05: AI / TOOLS (Y=615) -->
  <g transform="translate(0, 615)">
    <line x1="220" y1="0" x2="1152" y2="0" stroke="#D0D7DE" stroke-width="2" />

    <g class="laser-5-l">
      <line x1="-50" y1="0" x2="0" y2="0" stroke="#B85C3F" stroke-width="7" stroke-linecap="round" opacity="0.45" filter="url(#laserGlowLight)" />
      <line x1="-42" y1="0" x2="0" y2="0" stroke="url(#laserBulletLight)" stroke-width="3.5" stroke-linecap="round" />
      <circle cx="0" cy="0" r="4" fill="#FFFFFF" filter="url(#laserGlowLight)" />
      <circle cx="0" cy="0" r="2.2" fill="#FFFFFF" />
    </g>

    <g transform="translate(48, 7)">
      <text class="lane-title" x="0" y="0" font-size="22" fill="#B85C3F">05</text>
      <text class="lane-title" x="38" y="0" font-size="20" fill="#1F2328">AI &amp; TOOLS</text>
    </g>

    <!-- Node 1: Python -->
    <g transform="translate(260, 0)">
      <rect x="-34" y="-34" width="68" height="68" rx="14" fill="#FFFFFF" stroke="#B85C3F" stroke-width="1.8" />
      <path d="M -8 -8 H 3 V -2 H -2 V 0 H 5 C 7 0 7 5 7 5 V 8 H -2 V 4 H 3 V 0 H -5 C -7 0 -7 -5 -7 -5 Z" fill="#2563EB" />
      <text class="node-label" x="0" y="54" font-size="22" fill="#1F2328" text-anchor="middle">Python</text>
    </g>

    <!-- Node 2: PyTorch -->
    <g transform="translate(415, 0)">
      <rect x="-28" y="-28" width="56" height="56" rx="12" fill="#FFFFFF" stroke="#D0D7DE" stroke-width="1.3" />
      <path d="M -10 -5 L -4 -11 L 4 -5 L 10 -11 L 13 -5" fill="none" stroke="#DC2626" stroke-width="2.2" />
      <text class="node-label" x="0" y="48" font-size="20" fill="#1F2328" text-anchor="middle">PyTorch</text>
    </g>

    <!-- Node 3: Git -->
    <g transform="translate(565, 0)">
      <rect x="-27" y="-27" width="54" height="54" rx="12" fill="#FFFFFF" stroke="#D0D7DE" stroke-width="1.3" />
      <circle cx="-6" cy="-6" r="3" fill="#DC2626" />
      <circle cx="6" cy="6" r="3" fill="#DC2626" />
      <line x1="-6" y1="-6" x2="6" y2="6" stroke="#DC2626" stroke-width="2" />
      <text class="node-label" x="0" y="48" font-size="20" fill="#1F2328" text-anchor="middle">Git</text>
    </g>

    <!-- Node 4: Postman -->
    <g transform="translate(710, 0)">
      <rect x="-26" y="-26" width="52" height="52" rx="12" fill="#FFFFFF" stroke="#D0D7DE" stroke-width="1.3" />
      <circle cx="0" cy="0" r="10" fill="none" stroke="#EA580C" stroke-width="2" />
      <line x1="0" y1="-10" x2="6" y2="-4" stroke="#EA580C" stroke-width="2" />
      <text class="node-label" x="0" y="48" font-size="20" fill="#1F2328" text-anchor="middle">Postman</text>
    </g>

    <!-- Node 5: Figma -->
    <g transform="translate(850, 0)">
      <rect x="-26" y="-26" width="52" height="52" rx="12" fill="#FFFFFF" stroke="#D0D7DE" stroke-width="1.3" />
      <circle cx="-5" cy="-5" r="4" fill="#EA580C" />
      <circle cx="5" cy="5" r="4" fill="#DC2626" />
      <circle cx="-5" cy="5" r="4" fill="#16A34A" />
      <text class="node-label" x="0" y="48" font-size="20" fill="#1F2328" text-anchor="middle">Figma</text>
    </g>

    <!-- Node 6: Blender -->
    <g transform="translate(980, 0)">
      <rect x="-26" y="-26" width="52" height="52" rx="12" fill="#FFFFFF" stroke="#D0D7DE" stroke-width="1.3" />
      <circle cx="0" cy="0" r="8" fill="none" stroke="#D97706" stroke-width="2" />
      <circle cx="0" cy="0" r="3" fill="#D97706" />
      <text class="node-label" x="0" y="48" font-size="20" fill="#1F2328" text-anchor="middle">Blender</text>
    </g>

    <!-- Node 7: Unity -->
    <g transform="translate(1105, 0)">
      <rect x="-26" y="-26" width="52" height="52" rx="12" fill="#FFFFFF" stroke="#D0D7DE" stroke-width="1.3" />
      <path d="M 0 -10 L 9 6 L -9 6 Z" fill="none" stroke="#1F2328" stroke-width="2" />
      <text class="node-label" x="0" y="48" font-size="20" fill="#1F2328" text-anchor="middle">Unity</text>
    </g>
  </g>
</svg>
