<svg xmlns="http://www.w3.org/2000/svg" viewBox="0 0 1200 660" width="100%" height="100%">
  <defs>
    <style>
      .mono-hdr {
        font-family: ui-monospace, SFMono-Regular, 'SF Mono', Menlo, Consolas, monospace;
        font-weight: 700;
        letter-spacing: 1.5px;
      }
      .lane-title {
        font-family: ui-monospace, SFMono-Regular, 'SF Mono', Menlo, Consolas, monospace;
        font-weight: 800;
        letter-spacing: 1px;
      }
      .node-label {
        font-family: -apple-system, BlinkMacSystemFont, 'Segoe UI', Helvetica, Arial, sans-serif;
        font-weight: 700;
        letter-spacing: -0.2px;
      }

      @keyframes pulseLane1L {
        0% { stroke-dashoffset: 1200; opacity: 0; }
        5% { opacity: 1; }
        45% { stroke-dashoffset: 0; opacity: 1; }
        50% { opacity: 0; }
        100% { stroke-dashoffset: 0; opacity: 0; }
      }
      @keyframes pulseLane2L {
        0% { stroke-dashoffset: 1200; opacity: 0; }
        8% { opacity: 1; }
        48% { stroke-dashoffset: 0; opacity: 1; }
        53% { opacity: 0; }
        100% { stroke-dashoffset: 0; opacity: 0; }
      }
      @keyframes pulseLane3L {
        0% { stroke-dashoffset: 1200; opacity: 0; }
        6% { opacity: 1; }
        42% { stroke-dashoffset: 0; opacity: 1; }
        48% { opacity: 0; }
        100% { stroke-dashoffset: 0; opacity: 0; }
      }
      @keyframes pulseLane4L {
        0% { stroke-dashoffset: 1200; opacity: 0; }
        10% { opacity: 1; }
        50% { stroke-dashoffset: 0; opacity: 1; }
        55% { opacity: 0; }
        100% { stroke-dashoffset: 0; opacity: 0; }
      }
      @keyframes pulseLane5L {
        0% { stroke-dashoffset: 1200; opacity: 0; }
        7% { opacity: 1; }
        46% { stroke-dashoffset: 0; opacity: 1; }
        52% { opacity: 0; }
        100% { stroke-dashoffset: 0; opacity: 0; }
      }

      .pulse-line-1-l { stroke-dasharray: 60 1140; animation: pulseLane1L 9.7s ease-in-out infinite; }
      .pulse-line-2-l { stroke-dasharray: 60 1140; animation: pulseLane2L 12.3s ease-in-out infinite; animation-delay: 2.1s; }
      .pulse-line-3-l { stroke-dasharray: 60 1140; animation: pulseLane3L 10.8s ease-in-out infinite; animation-delay: 4.3s; }
      .pulse-line-4-l { stroke-dasharray: 60 1140; animation: pulseLane4L 14.1s ease-in-out infinite; animation-delay: 1.4s; }
      .pulse-line-5-l { stroke-dasharray: 60 1140; animation: pulseLane5L 11.6s ease-in-out infinite; animation-delay: 5.2s; }
    </style>
  </defs>

  <!-- Base Canvas -->
  <rect width="1200" height="660" rx="12" fill="#F6F8FA" stroke="#D0D7DE" stroke-width="1" />

  <!-- Celestial Precision Coordinate Points -->
  <g fill="#1F2328" opacity="0.04">
    <circle cx="120" cy="90" r="1.5" /><circle cx="340" cy="70" r="1.5" />
    <circle cx="680" cy="95" r="1.5" /><circle cx="950" cy="80" r="1.5" />
    <circle cx="210" cy="300" r="1.5" /><circle cx="820" cy="310" r="1.5" />
    <circle cx="450" cy="520" r="1.5" /><circle cx="1080" cy="540" r="1.5" />
  </g>

  <!-- Top Header Bar -->
  <g transform="translate(48, 44)">
    <text class="mono-hdr" x="0" y="0" font-size="18" fill="#B85C3F">ENGINEERING STACK</text>
    <text class="mono-hdr" x="225" y="0" font-size="16" fill="#59636E">/ TOOLS ACROSS THE SOFTWARE DELIVERY PATH</text>
    <text class="mono-hdr" x="1104" y="0" font-size="14" fill="#8C959F" text-anchor="end">SIGNAL TRANSMISSION</text>
  </g>

  <line x1="48" y1="62" x2="1152" y2="62" stroke="#E1E4E8" stroke-width="1" />

  <!-- LANE 01: PRODUCT (Y=125) -->
  <g transform="translate(0, 125)">
    <line x1="220" y1="0" x2="1152" y2="0" stroke="#D0D7DE" stroke-width="1.8" />
    <line class="pulse-line-1-l" x1="220" y1="0" x2="1152" y2="0" stroke="#B85C3F" stroke-width="3" stroke-linecap="round" />

    <g transform="translate(48, 7)">
      <text class="lane-title" x="0" y="0" font-size="22" fill="#B85C3F">01</text>
      <text class="lane-title" x="38" y="0" font-size="20" fill="#1F2328">PRODUCT</text>
    </g>

    <!-- Node 1: Flutter -->
    <g transform="translate(260, 0)">
      <rect x="-29" y="-29" width="58" height="58" rx="12" fill="#FFFFFF" stroke="#B85C3F" stroke-width="1.8" />
      <path d="M -10 -13 L 5 2 L -10 17 L -16 11 L -2 2 L -16 -7 Z" fill="#02569B" />
      <text class="node-label" x="0" y="48" font-size="21" fill="#1F2328" text-anchor="middle">Flutter</text>
    </g>

    <!-- Node 2: Dart -->
    <g transform="translate(415, 0)">
      <rect x="-23" y="-23" width="46" height="46" rx="10" fill="#FFFFFF" stroke="#D0D7DE" stroke-width="1.3" />
      <path d="M -8 -8 L 3 -8 L 8 0 L -3 8 L -8 8 Z" fill="#0175C2" />
      <text class="node-label" x="0" y="42" font-size="19" fill="#1F2328" text-anchor="middle">Dart</text>
    </g>

    <!-- Node 3: React -->
    <g transform="translate(570, 0)">
      <rect x="-28" y="-28" width="56" height="56" rx="12" fill="#FFFFFF" stroke="#D0D7DE" stroke-width="1.4" />
      <ellipse cx="0" cy="0" rx="12" ry="5" fill="none" stroke="#0088CC" stroke-width="1.5" />
      <ellipse cx="0" cy="0" rx="12" ry="5" transform="rotate(60)" fill="none" stroke="#0088CC" stroke-width="1.5" />
      <ellipse cx="0" cy="0" rx="12" ry="5" transform="rotate(120)" fill="none" stroke="#0088CC" stroke-width="1.5" />
      <circle cx="0" cy="0" r="2.5" fill="#0088CC" />
      <text class="node-label" x="0" y="46" font-size="21" fill="#1F2328" text-anchor="middle">React</text>
    </g>

    <!-- Node 4: TypeScript -->
    <g transform="translate(735, 0)">
      <rect x="-28" y="-28" width="56" height="56" rx="12" fill="#FFFFFF" stroke="#B85C3F" stroke-width="1.8" />
      <rect x="-20" y="-20" width="40" height="40" rx="4" fill="#3178C6" opacity="0.15" />
      <text class="mono-hdr" x="0" y="8" font-size="20" fill="#3178C6" text-anchor="middle">TS</text>
      <text class="node-label" x="0" y="46" font-size="21" fill="#1F2328" text-anchor="middle">TypeScript</text>
    </g>

    <!-- Node 5: Tailwind CSS -->
    <g transform="translate(895, 0)">
      <rect x="-23" y="-23" width="46" height="46" rx="10" fill="#FFFFFF" stroke="#D0D7DE" stroke-width="1.3" />
      <path d="M -9 -3 C -8 -8 -2 -7 0 -3 C 2 1 7 1 7 5 C 5 9 -2 8 -3 4 C -4 2 -9 2 -9 -3 Z" fill="#0284C7" />
      <text class="node-label" x="0" y="42" font-size="19" fill="#1F2328" text-anchor="middle">Tailwind</text>
    </g>

    <!-- Node 6: Vite -->
    <g transform="translate(1045, 0)">
      <rect x="-22" y="-22" width="44" height="44" rx="10" fill="#FFFFFF" stroke="#D0D7DE" stroke-width="1.3" />
      <path d="M -8 -9 L 0 9 L 8 -9 L 3 -9 L 0 -2 L -3 -9 Z" fill="#7C3AED" />
      <text class="node-label" x="0" y="42" font-size="19" fill="#1F2328" text-anchor="middle">Vite</text>
    </g>
  </g>

  <!-- LANE 02: SERVICES (Y=230) -->
  <g transform="translate(0, 230)">
    <line x1="220" y1="0" x2="1152" y2="0" stroke="#D0D7DE" stroke-width="1.8" />
    <line class="pulse-line-2-l" x1="220" y1="0" x2="1152" y2="0" stroke="#B85C3F" stroke-width="3" stroke-linecap="round" />

    <g transform="translate(48, 7)">
      <text class="lane-title" x="0" y="0" font-size="22" fill="#B85C3F">02</text>
      <text class="lane-title" x="38" y="0" font-size="20" fill="#1F2328">SERVICES</text>
    </g>

    <!-- Node 1: Node.js -->
    <g transform="translate(260, 0)">
      <rect x="-29" y="-29" width="58" height="58" rx="12" fill="#FFFFFF" stroke="#B85C3F" stroke-width="1.8" />
      <path d="M 0 -13 L 12 -6 L 12 6 L 0 13 L -12 6 L -12 -6 Z" fill="none" stroke="#43853D" stroke-width="2" />
      <text class="node-label" x="0" y="48" font-size="21" fill="#1F2328" text-anchor="middle">Node.js</text>
    </g>

    <!-- Node 2: Express -->
    <g transform="translate(430, 0)">
      <rect x="-23" y="-23" width="46" height="46" rx="10" fill="#FFFFFF" stroke="#D0D7DE" stroke-width="1.3" />
      <text class="mono-hdr" x="0" y="6" font-size="16" fill="#1F2328" text-anchor="middle">EX</text>
      <text class="node-label" x="0" y="42" font-size="19" fill="#1F2328" text-anchor="middle">Express</text>
    </g>

    <!-- Node 3: Socket.IO -->
    <g transform="translate(600, 0)">
      <rect x="-23" y="-23" width="46" height="46" rx="10" fill="#FFFFFF" stroke="#D0D7DE" stroke-width="1.3" />
      <path d="M 0 -8 L 6 -3 L 1 -3 L 1 5 L -1 5 L -1 -3 L -6 -3 Z M 0 8 L -6 3 L -1 3 L -1 -5 L 1 -5 L 1 3 L 6 3 Z" fill="#1F2328" />
      <text class="node-label" x="0" y="42" font-size="19" fill="#1F2328" text-anchor="middle">Socket.IO</text>
    </g>

    <!-- Node 4: Java -->
    <g transform="translate(780, 0)">
      <rect x="-27" y="-27" width="54" height="54" rx="12" fill="#FFFFFF" stroke="#D0D7DE" stroke-width="1.4" />
      <path d="M -6 8 C -3 9 4 9 7 8 C 8 5 4 3 0 1 C -5 0 -7 -4 -4 -6 C -1 -9 4 -9 7 -6" fill="none" stroke="#E76F00" stroke-width="1.8" />
      <text class="node-label" x="0" y="46" font-size="21" fill="#1F2328" text-anchor="middle">Java</text>
    </g>

    <!-- Subtle Technical Vector Marker -->
    <g transform="translate(1000, 0)">
      <path d="M 12 0 L -4 -4 L -6 0 L -4 4 Z" fill="#B85C3F" />
      <circle cx="12" cy="0" r="1.5" fill="#1F2328" />
      <text class="mono-hdr" x="28" y="4" font-size="12" fill="#8C959F">TX/RX</text>
    </g>
  </g>

  <!-- LANE 03: DATA (Y=335) -->
  <g transform="translate(0, 335)">
    <line x1="220" y1="0" x2="1152" y2="0" stroke="#D0D7DE" stroke-width="1.8" />
    <line class="pulse-line-3-l" x1="220" y1="0" x2="1152" y2="0" stroke="#B85C3F" stroke-width="3" stroke-linecap="round" />

    <g transform="translate(48, 7)">
      <text class="lane-title" x="0" y="0" font-size="22" fill="#B85C3F">03</text>
      <text class="lane-title" x="38" y="0" font-size="20" fill="#1F2328">DATA</text>
    </g>

    <!-- Node 1: PostgreSQL -->
    <g transform="translate(260, 0)">
      <rect x="-29" y="-29" width="58" height="58" rx="12" fill="#FFFFFF" stroke="#B85C3F" stroke-width="1.8" />
      <ellipse cx="0" cy="-6" rx="11" ry="4" fill="none" stroke="#336791" stroke-width="1.8" />
      <path d="M -11 -6 V 6 C 0 10 11 10 11 6 V -6" fill="none" stroke="#336791" stroke-width="1.8" />
      <text class="node-label" x="0" y="48" font-size="21" fill="#1F2328" text-anchor="middle">PostgreSQL</text>
    </g>

    <!-- Node 2: MongoDB -->
    <g transform="translate(395, 0)">
      <rect x="-27" y="-27" width="54" height="54" rx="12" fill="#FFFFFF" stroke="#D0D7DE" stroke-width="1.4" />
      <path d="M 0 -11 C 5 -5 6 5 0 11 C -6 5 -5 -5 0 -11 Z" fill="none" stroke="#47A248" stroke-width="1.8" />
      <text class="node-label" x="0" y="46" font-size="21" fill="#1F2328" text-anchor="middle">MongoDB</text>
    </g>

    <!-- Node 3: Redis -->
    <g transform="translate(530, 0)">
      <rect x="-27" y="-27" width="54" height="54" rx="12" fill="#FFFFFF" stroke="#D0D7DE" stroke-width="1.4" />
      <path d="M 0 -8 L 9 -4 L 0 0 L -9 -4 Z M -9 0 L 0 4 L 9 0 M -9 4 L 0 8 L 9 4" fill="none" stroke="#DC382D" stroke-width="1.8" />
      <text class="node-label" x="0" y="46" font-size="21" fill="#1F2328" text-anchor="middle">Redis</text>
    </g>

    <!-- Node 4: MySQL -->
    <g transform="translate(660, 0)">
      <rect x="-23" y="-23" width="46" height="46" rx="10" fill="#FFFFFF" stroke="#D0D7DE" stroke-width="1.3" />
      <text class="mono-hdr" x="0" y="6" font-size="14" fill="#00758F" text-anchor="middle">SQL</text>
      <text class="node-label" x="0" y="42" font-size="19" fill="#1F2328" text-anchor="middle">MySQL</text>
    </g>

    <!-- Node 5: Prisma -->
    <g transform="translate(780, 0)">
      <rect x="-23" y="-23" width="46" height="46" rx="10" fill="#FFFFFF" stroke="#D0D7DE" stroke-width="1.3" />
      <path d="M -7 7 L 0 -10 L 7 7 Z" fill="none" stroke="#2D3748" stroke-width="1.8" />
      <text class="node-label" x="0" y="42" font-size="19" fill="#1F2328" text-anchor="middle">Prisma</text>
    </g>

    <!-- Node 6: Drizzle -->
    <g transform="translate(895, 0)">
      <rect x="-22" y="-22" width="44" height="44" rx="10" fill="#FFFFFF" stroke="#D0D7DE" stroke-width="1.3" />
      <path d="M -5 6 L 5 -6 M -2 7 L 7 -4" stroke="#65A30D" stroke-width="1.8" stroke-linecap="round" />
      <text class="node-label" x="0" y="40" font-size="19" fill="#1F2328" text-anchor="middle">Drizzle</text>
    </g>

    <!-- Node 7: SQLite -->
    <g transform="translate(1005, 0)">
      <rect x="-22" y="-22" width="44" height="44" rx="10" fill="#FFFFFF" stroke="#D0D7DE" stroke-width="1.3" />
      <text class="mono-hdr" x="0" y="6" font-size="12" fill="#003B57" text-anchor="middle">LITE</text>
      <text class="node-label" x="0" y="40" font-size="19" fill="#1F2328" text-anchor="middle">SQLite</text>
    </g>

    <!-- Node 8: Supabase -->
    <g transform="translate(1110, 0)">
      <rect x="-23" y="-23" width="46" height="46" rx="10" fill="#FFFFFF" stroke="#D0D7DE" stroke-width="1.3" />
      <path d="M 3 -9 L -6 1 L 0 1 L -3 9 L 6 -1 L 0 -1 Z" fill="#10B981" />
      <text class="node-label" x="0" y="42" font-size="19" fill="#1F2328" text-anchor="middle">Supabase</text>
    </g>
  </g>

  <!-- LANE 04: CLOUD & DELIVERY (Y=440) -->
  <g transform="translate(0, 440)">
    <line x1="220" y1="0" x2="1152" y2="0" stroke="#D0D7DE" stroke-width="1.8" />
    <line class="pulse-line-4-l" x1="220" y1="0" x2="1152" y2="0" stroke="#B85C3F" stroke-width="3" stroke-linecap="round" />

    <g transform="translate(48, 7)">
      <text class="lane-title" x="0" y="0" font-size="22" fill="#B85C3F">04</text>
      <text class="lane-title" x="38" y="0" font-size="20" fill="#1F2328">DELIVERY</text>
    </g>

    <!-- Node 1: AWS -->
    <g transform="translate(260, 0)">
      <rect x="-29" y="-29" width="58" height="58" rx="12" fill="#FFFFFF" stroke="#D0D7DE" stroke-width="1.4" />
      <path d="M -10 4 C -4 9 4 9 10 4 M 8 4 L 10 4 L 9 6" fill="none" stroke="#D97706" stroke-width="1.8" />
      <text class="node-label" x="0" y="48" font-size="21" fill="#1F2328" text-anchor="middle">AWS</text>
    </g>

    <!-- Node 2: Google Cloud -->
    <g transform="translate(415, 0)">
      <rect x="-23" y="-23" width="46" height="46" rx="10" fill="#FFFFFF" stroke="#D0D7DE" stroke-width="1.3" />
      <path d="M -5 3 C -8 3 -9 1 -8 -2 C -7 -6 1 -6 4 -2 C 8 -2 9 3 5 3 Z" fill="none" stroke="#2563EB" stroke-width="1.5" />
      <text class="node-label" x="0" y="42" font-size="19" fill="#1F2328" text-anchor="middle">GCP</text>
    </g>

    <!-- Node 3: Docker -->
    <g transform="translate(570, 0)">
      <rect x="-29" y="-29" width="58" height="58" rx="12" fill="#FFFFFF" stroke="#B85C3F" stroke-width="1.8" />
      <rect x="-9" y="-8" width="4" height="4" fill="#0284C7" />
      <rect x="-3" y="-8" width="4" height="4" fill="#0284C7" />
      <rect x="3" y="-8" width="4" height="4" fill="#0284C7" />
      <rect x="-3" y="-14" width="4" height="4" fill="#0284C7" />
      <path d="M -12 -1 C -12 6 10 7 12 0 Z" fill="none" stroke="#0284C7" stroke-width="1.8" />
      <text class="node-label" x="0" y="48" font-size="21" fill="#1F2328" text-anchor="middle">Docker</text>
    </g>

    <!-- Node 4: Linux -->
    <g transform="translate(730, 0)">
      <rect x="-23" y="-23" width="46" height="46" rx="10" fill="#FFFFFF" stroke="#D0D7DE" stroke-width="1.3" />
      <ellipse cx="0" cy="0" rx="8" ry="9" fill="none" stroke="#1F2328" stroke-width="1.6" />
      <text class="node-label" x="0" y="42" font-size="19" fill="#1F2328" text-anchor="middle">Linux</text>
    </g>

    <!-- Node 5: GitHub Actions -->
    <g transform="translate(875, 0)">
      <rect x="-23" y="-23" width="46" height="46" rx="10" fill="#FFFFFF" stroke="#D0D7DE" stroke-width="1.3" />
      <circle cx="0" cy="-5" r="2.5" fill="#2563EB" />
      <circle cx="-5" cy="5" r="2.5" fill="#2563EB" />
      <circle cx="5" cy="5" r="2.5" fill="#2563EB" />
      <path d="M 0 -5 L -5 5 M 0 -5 L 5 5" stroke="#2563EB" stroke-width="1.5" />
      <text class="node-label" x="0" y="42" font-size="19" fill="#1F2328" text-anchor="middle">CI/CD</text>
    </g>

    <!-- Node 6: Vercel -->
    <g transform="translate(1010, 0)">
      <rect x="-22" y="-22" width="44" height="44" rx="10" fill="#FFFFFF" stroke="#D0D7DE" stroke-width="1.3" />
      <path d="M 0 -9 L 9 7 H -9 Z" fill="#1F2328" />
      <text class="node-label" x="0" y="40" font-size="19" fill="#1F2328" text-anchor="middle">Vercel</text>
    </g>
  </g>

  <!-- LANE 05: AI / TOOLS (Y=545) -->
  <g transform="translate(0, 545)">
    <line x1="220" y1="0" x2="1152" y2="0" stroke="#D0D7DE" stroke-width="1.8" />
    <line class="pulse-line-5-l" x1="220" y1="0" x2="1152" y2="0" stroke="#B85C3F" stroke-width="3" stroke-linecap="round" />

    <g transform="translate(48, 7)">
      <text class="lane-title" x="0" y="0" font-size="22" fill="#B85C3F">05</text>
      <text class="lane-title" x="38" y="0" font-size="20" fill="#1F2328">AI &amp; TOOLS</text>
    </g>

    <!-- Node 1: Python -->
    <g transform="translate(260, 0)">
      <rect x="-29" y="-29" width="58" height="58" rx="12" fill="#FFFFFF" stroke="#B85C3F" stroke-width="1.8" />
      <path d="M -7 -7 H 2 V -2 H -2 V 0 H 4 C 6 0 6 4 6 4 V 7 H -2 V 3 H 2 V 0 H -4 C -6 0 -6 -4 -6 -4 Z" fill="#2563EB" />
      <text class="node-label" x="0" y="48" font-size="21" fill="#1F2328" text-anchor="middle">Python</text>
    </g>

    <!-- Node 2: PyTorch -->
    <g transform="translate(415, 0)">
      <rect x="-24" y="-24" width="48" height="48" rx="10" fill="#FFFFFF" stroke="#D0D7DE" stroke-width="1.3" />
      <path d="M -8 -4 L -3 -9 L 3 -4 L 8 -9 L 11 -4" fill="none" stroke="#DC2626" stroke-width="1.8" />
      <text class="node-label" x="0" y="42" font-size="19" fill="#1F2328" text-anchor="middle">PyTorch</text>
    </g>

    <!-- Node 3: Git -->
    <g transform="translate(565, 0)">
      <rect x="-23" y="-23" width="46" height="46" rx="10" fill="#FFFFFF" stroke="#D0D7DE" stroke-width="1.3" />
      <circle cx="-5" cy="-5" r="2.5" fill="#DC2626" />
      <circle cx="5" cy="5" r="2.5" fill="#DC2626" />
      <line x1="-5" y1="-5" x2="5" y2="5" stroke="#DC2626" stroke-width="1.8" />
      <text class="node-label" x="0" y="42" font-size="19" fill="#1F2328" text-anchor="middle">Git</text>
    </g>

    <!-- Node 4: Postman -->
    <g transform="translate(710, 0)">
      <rect x="-22" y="-22" width="44" height="44" rx="10" fill="#FFFFFF" stroke="#D0D7DE" stroke-width="1.3" />
      <circle cx="0" cy="0" r="8" fill="none" stroke="#EA580C" stroke-width="1.8" />
      <line x1="0" y1="-8" x2="5" y2="-3" stroke="#EA580C" stroke-width="1.8" />
      <text class="node-label" x="0" y="40" font-size="19" fill="#1F2328" text-anchor="middle">Postman</text>
    </g>

    <!-- Node 5: Figma -->
    <g transform="translate(850, 0)">
      <rect x="-22" y="-22" width="44" height="44" rx="10" fill="#FFFFFF" stroke="#D0D7DE" stroke-width="1.3" />
      <circle cx="-4" cy="-4" r="3.5" fill="#EA580C" />
      <circle cx="4" cy="-4" r="3.5" fill="#DC2626" />
      <circle cx="-4" cy="4" r="3.5" fill="#16A34A" />
      <text class="node-label" x="0" y="40" font-size="19" fill="#1F2328" text-anchor="middle">Figma</text>
    </g>

    <!-- Node 6: Blender -->
    <g transform="translate(980, 0)">
      <rect x="-22" y="-22" width="44" height="44" rx="10" fill="#FFFFFF" stroke="#D0D7DE" stroke-width="1.3" />
      <circle cx="0" cy="0" r="7" fill="none" stroke="#D97706" stroke-width="1.8" />
      <circle cx="0" cy="0" r="2.5" fill="#D97706" />
      <text class="node-label" x="0" y="40" font-size="19" fill="#1F2328" text-anchor="middle">Blender</text>
    </g>

    <!-- Node 7: Unity -->
    <g transform="translate(1105, 0)">
      <rect x="-22" y="-22" width="44" height="44" rx="10" fill="#FFFFFF" stroke="#D0D7DE" stroke-width="1.3" />
      <path d="M 0 -8 L 7 5 L -7 5 Z" fill="none" stroke="#1F2328" stroke-width="1.8" />
      <text class="node-label" x="0" y="40" font-size="19" fill="#1F2328" text-anchor="middle">Unity</text>
    </g>
  </g>
</svg>
